# xmcd
#
# Track frame offsets: 
#        150
#        23300
#        49962
#        72578
#        91805
#        129712
#        134926
#        161087
#        176815
#        201448
#        240231
#        282459
#        323073
#
# Disc length: 4639 seconds
#
# Revision: 0
# Processed by: cddbd v1.5.2PL0 Copyright (c) Steve Scherf et al.
# Submitted via: ExactAudioCopy v0.95b3
#
DISCID=c4121d0d
DTITLE=Joe Walsh  - Live In Dallas 7-10-81  FLAC
DYEAR=1900
DGENRE=
TTITLE0=Meadows
TTITLE1=Over And Over
TTITLE2=In The City
TTITLE3=Life Of Illusion
TTITLE4=The Bomber
TTITLE5=Band Intros
TTITLE6=Dreams
TTITLE7=Theme From Boat Weirdos
TTITLE8=Funk #49
TTITLE9=You Never Know
TTITLE10=Life's Been Good
TTITLE11=Rocky Mountain Way
TTITLE12=All Night Long
EXTD=
EXTT0=
EXTT1=
EXTT2=
EXTT3=
EXTT4=
EXTT5=
EXTT6=
EXTT7=
EXTT8=
EXTT9=
EXTT10=
EXTT11=
EXTT12=
PLAYORDER=
